<svg xmlns="http://www.w3.org/2000/svg" width="1100" height="640" viewBox="0 0 1100 640">
<defs><linearGradient id="area" x2="0" y2="1"><stop stop-color="#9f91ff" stop-opacity=".35"/><stop offset="1" stop-color="#9f91ff" stop-opacity="0"/></linearGradient></defs>
<rect width="1100" height="640" rx="12" fill="#17171f"/><path d="M0 38h1100" stroke="#30303a"/><g fill="#565463"><circle cx="20" cy="19" r="4"/><circle cx="35" cy="19" r="4"/><circle cx="50" cy="19" r="4"/></g>
<rect x="0" y="39" width="190" height="601" fill="#1c1c25"/><path d="M190 39v601" stroke="#30303a"/>
<g font-family="Arial,sans-serif"><text x="27" y="100" font-size="35" font-weight="700" letter-spacing="-2" fill="#b9aaff">pulse.</text><text x="28" y="149" font-size="9" fill="#85828f" letter-spacing="1.6">WORKSPACE</text>
<rect x="17" y="169" width="156" height="40" rx="8" fill="#a290ff"/><g font-size="11"><text x="36" y="194" fill="#211832">▦  Overview</text><text x="36" y="240" fill="#a39fab">↗  Analytics</text><text x="36" y="285" fill="#a39fab">◷  Activity</text><text x="36" y="330" fill="#a39fab">⊞  Reports</text><text x="36" y="583" fill="#a39fab">⚙  Settings</text></g>
<text x="230" y="93" font-size="25" fill="#f1eef8" letter-spacing="-.8">A clearer view of your business.</text><text x="231" y="119" font-size="11" fill="#96909f">Your workspace at a glance. Make every insight count.</text><rect x="922" y="73" width="133" height="34" rx="7" fill="#292831"/><text x="940" y="95" font-size="10" fill="#ddd6ec">Last 30 days  ⌄</text>
<g fill="#22222d" stroke="#34313f"><rect x="230" y="151" width="258" height="109" rx="10"/><rect x="513" y="151" width="258" height="109" rx="10"/><rect x="796" y="151" width="258" height="109" rx="10"/></g>
<g fill="#a29baa" font-size="10"><text x="252" y="179">Total revenue</text><text x="535" y="179">Active customers</text><text x="818" y="179">Conversion rate</text></g><g fill="#f3effb" font-size="30"><text x="251" y="223">$48,290</text><text x="534" y="223">2,846</text><text x="818" y="223">4.82%</text></g><g fill="#bfe0b2" font-size="9"><text x="252" y="244">↗ 12.8% this month</text><text x="535" y="244">↗ 8.2% this month</text><text x="819" y="244">↗ 2.4% this month</text></g>
<rect x="230" y="284" width="548" height="303" rx="10" fill="#22222d" stroke="#34313f"/><text x="252" y="316" fill="#eee9f5" font-size="13">Revenue over time</text><circle cx="665" cy="312" r="4" fill="#ae9aff"/><text x="679" y="316" font-size="9" fill="#aaa1b6">Revenue</text>
<g stroke="#37323f" stroke-dasharray="3 5"><path d="M278 363h468M278 413h468M278 463h468M278 513h468"/></g><g fill="#8f879d" font-size="8"><text x="250" y="366">12k</text><text x="250" y="416">8k</text><text x="250" y="466">4k</text><text x="250" y="516">0</text><text x="280" y="551">Jun 01</text><text x="392" y="551">Jun 08</text><text x="505" y="551">Jun 15</text><text x="617" y="551">Jun 22</text><text x="714" y="551">Jun 30</text></g>
<path d="M280 481C307 471 314 442 347 454S387 473 415 429S451 454 482 413S519 436 550 393S594 422 625 379S668 397 702 355S730 349 746 341V521H280z" fill="url(#area)"/><path d="M280 481C307 471 314 442 347 454S387 473 415 429S451 454 482 413S519 436 550 393S594 422 625 379S668 397 702 355S730 349 746 341" fill="none" stroke="#b3a0ff" stroke-width="3"/>
<rect x="800" y="284" width="254" height="303" rx="10" fill="#22222d" stroke="#34313f"/><text x="822" y="316" fill="#eee9f5" font-size="13">Traffic sources</text><circle cx="928" cy="415" r="60" fill="none" stroke="#3a334d" stroke-width="23"/><circle cx="928" cy="415" r="60" fill="none" stroke="#a993f5" stroke-width="23" stroke-dasharray="219 377" transform="rotate(-90 928 415)"/><circle cx="928" cy="415" r="60" fill="none" stroke="#d5c9f5" stroke-width="23" stroke-dasharray="83 377" transform="rotate(120 928 415)"/><text x="928" y="418" text-anchor="middle" fill="#eee9f5" font-size="23">24.8k</text><text x="928" y="437" text-anchor="middle" fill="#aaa1b6" font-size="9">total visits</text>
<circle cx="828" cy="516" r="4" fill="#a993f5"/><text x="840" y="520" font-size="10" fill="#aaa1b6">Organic search</text><text x="1004" y="520" font-size="10" fill="#eee9f5">58%</text><circle cx="828" cy="545" r="4" fill="#d5c9f5"/><text x="840" y="549" font-size="10" fill="#aaa1b6">Direct</text><text x="1004" y="549" font-size="10" fill="#eee9f5">22%</text>
<text x="233" y="618" fill="#756c83" font-size="9">SAMPLE DATA · INTERFACE CONCEPT</text></g></svg>
